<svg version="1.1" id="Layer_1" xmlns="http://www.w3.org/2000/svg" xmlns:xlink="http://www.w3.org/1999/xlink" x="0px" y="0px"
	 width="100%" viewBox="0 0 644 644" enable-background="new 0 0 644 644" xml:space="preserve">
<path fill="#000000" opacity="0.000000" stroke="none" 
	d="
M1.000000,225.000000 
	C1.000000,150.014450 1.000000,75.528900 1.000000,1.021674 
	C215.610580,1.021674 430.221161,1.021674 644.915894,1.021674 
	C644.915894,215.568924 644.915894,430.137878 644.915894,644.853394 
	C430.333405,644.853394 215.666718,644.853394 1.000000,644.853394 
	C1.000000,505.112091 1.000000,365.306061 1.000000,225.000000 
M266.346741,438.974060 
	C266.169250,439.595734 265.991760,440.217438 265.406403,441.000580 
	C265.406403,441.000580 265.000366,441.166687 264.282318,441.221069 
	C262.841522,442.774994 261.400726,444.328888 259.237488,445.774597 
	C259.123566,445.653748 259.027435,445.502686 258.890015,445.421692 
	C258.781555,445.357880 258.539581,445.317780 258.497498,445.373413 
	C256.702911,447.746765 254.924057,450.132080 253.143280,452.515900 
	C251.863159,456.169678 251.085617,460.188263 246.139481,461.680237 
	C246.004089,463.441284 245.869476,465.192322 245.742462,466.844360 
	C243.568283,467.000977 241.812378,467.127472 240.156662,467.246735 
	C239.998825,469.424835 239.871613,471.180298 239.751907,472.831940 
	C237.577911,472.999756 235.831970,473.134552 234.132126,473.265778 
	C234.007980,476.095001 233.901566,478.520081 233.799988,480.835022 
	C231.594681,481.001709 229.845825,481.133881 227.749191,481.292358 
	C227.749191,484.424469 227.749191,487.182617 227.749191,489.855835 
	C225.591187,490.002838 223.829865,490.122803 221.904694,490.253967 
	C221.904694,492.271179 221.904694,493.906128 221.904694,495.719971 
	C220.529114,495.931702 219.310974,496.119232 218.324158,496.271149 
	C217.742218,500.321075 217.213211,504.002747 216.632751,508.042480 
	C214.832657,508.042480 213.085236,508.042480 210.958786,508.042480 
	C210.958786,512.164551 210.958786,515.930725 210.958786,520.046753 
	C208.830978,520.046753 207.087173,520.046753 204.987915,520.046753 
	C204.987915,523.841125 204.987915,527.285706 204.987915,530.299316 
	C198.541885,532.617981 199.050507,537.814148 198.957977,542.516296 
	C193.329987,543.847412 193.180832,548.232910 192.874298,551.970032 
	C190.800705,553.239685 188.824875,554.078674 187.354401,555.456787 
	C185.950287,556.772705 185.072357,558.650024 183.963150,560.280640 
	C183.592697,560.111206 183.222229,559.941833 182.851776,559.772461 
	C182.851776,561.390686 182.851776,563.008911 182.851776,564.805481 
	C177.545242,564.805481 172.453125,564.805481 166.993011,564.805481 
	C166.993011,562.868958 166.993011,561.120117 166.993011,559.322144 
	C165.098145,559.048767 163.553345,558.825806 162.127182,558.620056 
	C161.989273,556.525513 161.874161,554.777039 161.766434,553.140869 
	C159.525436,552.990967 157.780380,552.874207 155.868759,552.746338 
	C155.868759,550.657776 155.868759,549.021606 155.868759,547.488403 
	C150.337448,546.096252 150.294617,541.645386 149.749359,537.347107 
	C148.561615,537.077209 146.650314,537.194275 146.211945,536.447083 
	C144.386963,533.336792 142.144684,530.552612 140.154129,527.598572 
	C138.447159,525.065430 138.101303,521.615051 137.020966,518.144653 
	C136.481781,518.052124 135.273087,517.844727 133.723679,517.578918 
	C133.723679,514.215698 133.723679,511.133118 133.723679,507.879608 
	C131.688797,507.879608 130.060669,507.879608 127.882660,507.879608 
	C127.882660,503.818817 127.882660,499.934540 127.882660,495.881256 
	C125.693275,495.881256 124.062012,495.881256 122.732246,495.881256 
	C121.823242,490.131104 120.948250,484.596069 120.100304,479.232147 
	C118.320465,479.038696 117.244438,478.921753 116.635056,478.855530 
	C114.387939,473.088440 119.146523,465.675201 110.720467,461.955109 
	C110.720467,456.541382 110.720467,450.794922 110.720467,444.875916 
	C108.681664,444.875916 107.054901,444.875916 104.873703,444.875916 
	C104.873703,439.147888 104.873703,433.596710 104.873703,427.877991 
	C102.686028,427.877991 101.058670,427.877991 99.000000,427.877991 
	C99.000000,422.069519 98.825363,416.437805 99.056374,410.822754 
	C99.234657,406.489349 97.940025,403.734406 92.847687,403.832123 
	C92.847687,396.381348 92.847687,389.278687 92.847687,382.129150 
	C90.721794,382.016205 88.973640,381.923309 86.861496,381.811096 
	C86.861496,374.035919 86.861496,366.608215 86.861496,359.129211 
	C84.725227,359.017120 82.977058,358.925415 80.864815,358.814575 
	C80.864815,349.040039 80.864815,339.613495 80.864815,330.128326 
	C78.728951,330.018219 76.980774,329.928070 74.893227,329.820465 
	C74.893227,318.364044 74.893227,307.258301 74.893227,296.316772 
	C73.323105,295.972656 72.146736,295.714844 71.544144,295.582794 
	C70.586937,292.037140 69.123207,289.102295 69.104340,286.158203 
	C68.928238,258.661316 68.921097,231.162308 69.109909,203.665588 
	C69.131126,200.576782 70.667297,197.498383 71.551750,194.227158 
	C72.552132,194.046234 73.750633,193.829483 75.000000,193.603516 
	C75.000000,186.103821 75.188240,178.937759 74.930527,171.787766 
	C74.771866,167.385956 76.319702,164.891068 81.171158,164.749832 
	C81.171158,159.350586 81.171158,154.251190 81.171158,149.173706 
	C83.304932,149.019867 85.054497,148.893723 87.163986,148.741638 
	C87.163986,144.674362 87.163986,140.913696 87.163986,137.168549 
	C89.302956,137.020279 91.052551,136.898987 93.158691,136.752991 
	C93.158691,133.011703 93.158691,129.583572 93.158691,126.171753 
	C95.304504,126.019341 97.064880,125.894310 98.839844,125.768234 
	C98.978363,123.696762 99.095993,121.937798 99.215141,120.155991 
	C101.297455,120.022499 103.055267,119.909805 104.869766,119.793480 
	C104.981895,117.712204 105.076279,115.960297 105.189735,113.854362 
	C108.631935,113.854362 111.722839,113.854362 114.845589,113.854362 
	C114.977814,111.715454 115.086327,109.960075 115.198212,108.150230 
	C117.618172,108.021126 119.707581,107.909660 121.883751,107.793564 
	C121.980431,105.727043 122.062241,103.978424 122.161011,101.867111 
	C125.611984,101.867111 128.711105,101.867111 131.875244,101.867111 
	C131.978226,99.734520 132.062668,97.985489 132.163605,95.895103 
	C136.289062,95.895103 140.064560,95.895103 143.678101,95.895103 
	C144.021103,94.331261 144.280045,93.150635 144.391312,92.643318 
	C147.823212,91.628761 150.567368,90.153893 153.334091,90.110336 
	C168.162674,89.876877 182.998795,89.871422 197.827744,90.093063 
	C201.415405,90.146683 204.748337,91.676270 205.719894,96.277557 
	C213.122925,96.277557 220.537598,96.277557 228.123016,96.277557 
	C228.123016,98.316307 228.123016,99.943359 228.123016,102.124542 
	C234.183456,102.124542 240.067001,102.124542 246.121002,102.124542 
	C246.121002,104.312088 246.121002,105.939705 246.121002,108.120453 
	C252.180542,108.120453 258.065277,108.120453 264.120758,108.120453 
	C264.120758,110.310547 264.120758,111.938293 264.120758,113.660400 
	C267.860596,113.660400 271.397064,113.660400 274.654816,113.660400 
	C274.654816,110.900314 274.654816,108.486191 274.654816,105.710693 
	C271.555023,105.710693 268.801849,105.710693 266.136536,105.710693 
	C265.993195,103.559029 265.876129,101.801582 265.766022,100.148552 
	C263.562866,99.995445 261.806946,99.873421 260.152893,99.758476 
	C259.997406,97.566475 259.872894,95.811035 259.755615,94.157784 
	C257.576447,93.998734 255.821884,93.870674 253.909378,93.731087 
	C253.909378,91.705002 253.909378,90.076836 253.909378,87.907394 
	C249.845123,87.907394 245.950470,87.907394 242.146652,87.907394 
	C241.998383,85.586212 241.885300,83.816071 241.780518,82.175911 
	C239.133865,81.641907 235.874008,83.275291 235.456161,79.058731 
	C235.415085,78.644203 234.150085,78.170341 233.398071,78.038635 
	C230.383423,77.510658 227.347046,77.106705 223.960220,76.603645 
	C223.960220,74.838654 223.960220,73.088799 223.960220,70.993774 
	C220.821518,70.993774 218.048203,70.993774 215.314178,70.993774 
	C214.511566,62.321583 207.772751,65.961838 203.283325,64.708176 
	C202.726288,56.353916 196.086197,59.795540 191.412170,58.798885 
	C191.113403,57.586224 190.791977,56.281658 190.608475,55.536873 
	C186.496078,54.422844 182.953278,53.463108 179.238892,52.456902 
	C179.044189,51.431057 178.816498,50.231331 178.727264,49.761147 
	C172.896927,48.797588 167.641663,47.929070 162.281250,47.043175 
	C162.075134,45.540218 161.908844,44.327713 161.820084,43.680565 
	C155.713745,42.609779 150.147568,41.633717 144.173264,40.586086 
	C144.066757,39.612411 143.934906,38.407013 143.780991,37.000000 
	C138.316086,37.000000 133.152313,37.259682 128.027390,36.924698 
	C123.201820,36.609280 118.252838,36.213009 113.665367,34.831898 
	C109.827728,33.676537 106.433861,31.047167 102.843483,29.070513 
	C103.017357,28.782026 103.191231,28.493538 103.365105,28.205051 
	C114.130859,28.205051 124.896614,28.205051 135.686600,28.205051 
	C135.948135,29.926512 136.179962,31.452467 136.439301,33.159508 
	C144.398148,33.159508 152.022476,33.159508 160.007416,33.159508 
	C160.007416,35.135094 160.007416,36.877522 160.007416,39.004295 
	C167.124115,39.004295 173.885986,39.004295 181.003906,39.004295 
	C181.003906,41.120953 181.003906,42.874397 181.003906,45.000977 
	C185.786118,45.000977 190.218338,45.000977 195.002228,45.000977 
	C195.002228,47.129181 195.002228,48.873432 195.002228,50.971703 
	C198.462097,50.971703 201.572128,50.971703 204.745041,50.971703 
	C205.382263,59.749538 212.172668,56.021870 216.757477,57.322418 
	C216.916992,58.421574 217.093811,59.639935 217.225571,60.547771 
	C220.947357,61.641716 224.298279,62.626652 228.086151,63.740017 
	C228.086151,65.210434 228.086151,66.956642 228.086151,69.079163 
	C232.214798,69.079163 235.979889,69.079163 240.093903,69.079163 
	C240.093903,71.210968 240.093903,72.956284 240.093903,75.000008 
	C242.428696,75.000008 244.404343,74.904251 246.364792,75.035469 
	C247.564911,75.115791 249.641449,75.306526 249.786301,75.854362 
	C250.919312,80.139404 254.211990,80.172981 256.641388,80.065643 
	C258.099915,81.701981 259.049805,82.767654 260.824066,83.987617 
	C263.604919,85.325096 266.385803,86.662575 269.029510,88.872437 
	C270.127533,89.248276 271.216431,89.913475 272.325165,89.948311 
	C276.446350,90.077805 280.574066,89.999962 285.053802,89.999962 
	C285.053802,92.174828 285.053802,93.917297 285.053802,96.040909 
	C291.171234,96.040909 296.934448,96.040909 303.048340,96.040909 
	C303.048340,98.170036 303.048340,99.912399 303.048340,102.032852 
	C314.834656,102.032852 326.260376,102.032852 338.044861,102.032852 
	C338.044861,104.165787 338.044861,105.915367 338.044861,107.796494 
	C340.158661,107.796494 341.903961,107.796494 344.019379,107.796494 
	C344.019379,105.863419 344.019379,104.110748 344.019379,102.004288 
	C354.488861,102.004288 364.594818,102.004288 373.530304,102.004288 
	C380.086090,92.398140 389.612518,97.805527 396.854187,95.545166 
	C397.004211,93.612915 397.139801,91.866539 397.290436,89.926483 
	C404.292816,89.926483 410.923126,89.926483 417.718292,89.926483 
	C417.934326,88.523308 418.120422,87.314445 418.326263,85.977470 
	C426.867706,85.072479 435.131561,84.196899 443.885712,83.269371 
	C443.946014,82.603210 444.054352,81.406570 444.151367,80.334442 
	C456.445038,78.773056 468.442627,81.313248 480.478485,78.368759 
	C486.430450,76.912666 493.319427,79.501625 499.806030,79.942070 
	C504.284698,80.246162 508.800476,79.996307 513.299500,80.020203 
	C513.773926,80.022728 514.247437,80.202217 514.830811,80.322090 
	C514.951294,81.464020 515.067017,82.560349 515.170837,83.544762 
	C518.751831,84.584305 522.108582,85.558762 525.799805,86.630325 
	C525.929321,87.460800 526.120178,88.684914 526.296814,89.817749 
	C528.394653,89.987122 530.148071,90.128685 531.821594,90.263794 
	C531.988831,92.387589 532.127136,94.143982 532.259155,95.821442 
	C534.381958,95.988556 536.138733,96.126862 537.818298,96.259079 
	C537.987793,98.378548 538.127991,100.131500 538.263123,101.821465 
	C540.363586,101.984573 542.107361,102.119987 544.207275,102.283051 
	C544.207275,106.379318 544.207275,110.137451 544.207275,113.826584 
	C546.352539,113.989120 548.102539,114.121712 550.198853,114.280533 
	C550.198853,122.042290 550.198853,129.468948 550.198853,136.830811 
	C552.340942,136.987976 554.088501,137.116196 555.708008,137.235016 
	C555.708008,148.037170 555.708008,158.457581 555.708008,168.842987 
	C553.665833,168.986237 551.918213,169.108826 549.812866,169.256500 
	C549.812866,181.026779 549.812866,192.451065 549.812866,203.838470 
	C547.670288,203.984955 545.922180,204.104477 543.986572,204.236801 
	C543.986572,211.562759 543.986572,218.529144 543.986572,225.363693 
	C533.231934,228.232239 540.418091,237.265289 537.419434,242.772018 
	C533.632874,243.006989 531.726807,244.958328 531.954163,249.133148 
	C532.167908,253.056900 532.000000,257.001434 532.000000,260.819000 
	C529.610657,261.004242 527.866821,261.139435 525.942383,261.288605 
	C525.942383,266.629669 525.942383,271.600952 525.942383,275.231567 
	C523.418091,277.441589 520.650269,278.681824 520.236877,280.467255 
	C519.308716,284.475128 520.099304,288.480011 517.284668,292.533966 
	C514.903748,295.963196 515.026978,301.131073 513.993286,305.747009 
	C506.354889,306.425232 509.915985,313.134460 508.690857,317.795319 
	C507.600952,317.925781 506.381500,318.071747 505.036774,318.232727 
	C504.974304,323.576843 505.445984,328.941864 499.715454,330.597534 
	C498.716583,336.212036 497.785034,341.448242 496.853821,346.682617 
	C495.427551,346.956299 494.224518,347.187134 493.082184,347.406311 
	C493.227997,358.551117 492.816010,357.584290 487.126312,359.601868 
	C486.345306,364.258392 489.583649,370.987854 480.831909,371.438843 
	C480.831909,375.132660 480.831909,378.429871 480.831909,381.806091 
	C470.473358,381.613892 477.159668,389.991852 474.176544,394.054718 
	C472.821991,394.054718 471.078400,394.054718 468.302246,394.054718 
	C472.460663,402.802307 463.832733,408.049469 463.661896,415.720764 
	C455.049805,416.272980 459.158478,423.500244 457.609009,427.890381 
	C455.737457,427.976990 453.988617,428.057892 451.876587,428.155609 
	C451.876587,431.939240 451.876587,435.367188 451.876587,438.879730 
	C449.742462,438.977203 447.991730,439.057159 446.039917,439.146332 
	C446.039917,442.473480 446.039917,445.436829 446.039917,448.635010 
	C437.283997,449.195282 440.870789,456.126526 439.691803,460.986420 
	C437.899323,460.986420 436.138611,460.986420 434.021973,460.986420 
	C434.021973,463.106842 434.021973,464.862549 434.021973,466.666229 
	C432.455017,466.952332 431.236267,467.174866 430.548279,467.300476 
	C429.440704,471.342987 428.469147,474.889160 427.381714,478.858276 
	C422.998199,477.648743 424.262695,481.597870 423.712280,483.816986 
	C414.396454,483.879974 418.653656,491.598053 416.456909,495.748047 
	C415.414429,495.958313 414.204926,496.202271 412.841034,496.477356 
	C412.841034,498.386139 412.841034,500.008392 412.841034,501.994385 
	C410.880646,501.994385 409.131195,501.994385 407.001129,501.994385 
	C407.001129,506.110779 407.001129,509.877167 407.001129,513.998047 
	C404.875885,513.998047 403.130707,513.998047 401.196350,513.998047 
	C401.196350,516.781860 401.196350,519.194824 401.196350,521.804199 
	C403.789948,521.804199 406.203796,521.804199 408.992249,521.804199 
	C408.992249,519.881775 408.992249,518.132324 408.992249,516.014893 
	C411.109772,516.014893 412.861298,516.014893 414.980469,516.014893 
	C414.980469,513.896240 414.980469,512.144043 414.980469,510.310608 
	C416.878662,510.046844 418.424927,509.831970 419.865509,509.631805 
	C420.007324,507.537323 420.125916,505.786011 420.237152,504.143188 
	C422.453217,503.992920 424.207489,503.873962 425.854645,503.762268 
	C426.005646,501.557434 426.125946,499.800629 426.239136,498.147919 
	C428.437927,497.995514 430.194794,497.873718 431.849762,497.759003 
	C432.003265,495.566437 432.126282,493.809204 432.242493,492.149353 
	C434.436707,491.997742 436.194427,491.876282 438.110779,491.743866 
	C438.110779,489.706451 438.110779,488.067932 438.110779,486.467163 
	C443.561859,485.479553 443.300171,480.833801 445.264862,478.019928 
	C449.954773,473.326843 454.644684,468.633728 459.930603,463.344208 
	C459.979858,462.669281 460.108063,460.912720 460.234833,459.175598 
	C462.328461,459.019501 464.086212,458.888458 465.824829,458.758820 
	C465.980835,456.675354 466.112701,454.914520 466.240875,453.202637 
	C467.978058,453.031525 469.404114,452.891052 470.404938,452.792480 
	C471.517639,448.676849 472.515442,444.986176 473.520905,441.267242 
	C474.653595,441.017059 475.839508,440.755127 477.197571,440.455170 
	C477.197571,438.520172 477.197571,436.906647 477.197571,434.929016 
	C479.199493,434.929016 480.952759,434.929016 482.664093,434.929016 
	C482.954590,433.035095 483.188477,431.510132 483.448700,429.813629 
	C485.442871,429.813629 487.060242,429.813629 489.044617,429.813629 
	C489.044617,427.830444 489.044617,426.079376 489.044617,423.963745 
	C491.162231,423.963745 492.910034,423.963745 495.001953,423.963745 
	C495.001953,420.488403 495.001953,417.379303 495.001953,414.166412 
	C501.021210,414.294769 501.082397,410.035248 501.204254,407.441254 
	C503.595459,405.979584 505.214417,404.989990 506.987427,403.152924 
	C506.987427,401.557709 506.987427,399.962524 506.987427,398.470886 
	C510.212494,397.188629 513.904541,396.670044 512.997498,391.197540 
	C517.673767,389.969574 518.556763,386.433014 518.077637,382.364746 
	C523.679199,381.510559 523.983643,377.461700 524.183044,373.101776 
	C529.816772,373.474060 530.279663,369.740936 530.025513,365.611511 
	C535.825256,364.329651 535.789001,359.617493 536.221924,355.349426 
	C537.614624,355.045410 538.811646,354.784119 539.463867,354.641724 
	C540.572083,350.555695 541.533630,347.010284 542.561401,343.220856 
	C543.518250,343.052704 544.737793,342.838379 545.844849,342.643860 
	C546.000305,340.552002 546.130310,338.802460 546.252441,337.158234 
	C548.434143,336.997955 550.181335,336.869598 551.820251,336.749207 
	C552.540894,332.006348 549.830811,325.870911 558.135925,325.787964 
	C558.135925,322.412262 558.135925,319.306519 558.135925,316.117798 
	C560.255859,316.024139 562.008057,315.946716 564.113892,315.853699 
	C564.113892,311.731079 564.113892,307.967804 564.113892,304.105011 
	C565.907959,304.023682 567.321777,303.959564 569.099243,303.878998 
	C569.099243,299.756683 569.099243,295.991486 569.099243,291.883240 
	C571.230469,291.883240 572.973328,291.883240 575.093018,291.883240 
	C575.093018,287.764069 575.093018,283.999359 575.093018,279.890778 
	C577.220154,279.890778 578.970764,279.890778 581.086792,279.890778 
	C581.086792,276.108276 581.086792,272.677032 581.086792,268.901245 
	C583.216431,268.901245 584.959412,268.901245 587.060303,268.901245 
	C587.060303,264.769592 587.060303,261.001282 587.060303,257.345825 
	C588.628967,257.012665 589.821106,256.759460 590.916748,256.526733 
	C591.884827,250.590683 592.797119,244.996597 593.679504,239.585754 
	C600.780579,236.550064 598.427063,229.871475 599.216248,224.110657 
	C604.255432,224.418900 605.259338,221.366089 605.038818,217.112793 
	C604.850952,213.490921 605.000000,209.851578 605.000000,206.355057 
	C606.631714,206.008209 607.823120,205.754944 608.922485,205.521255 
	C609.887085,199.588531 610.795654,194.000732 611.739014,188.198883 
	C612.564514,188.042252 613.766052,187.814285 614.913818,187.596527 
	C615.627258,178.498215 616.296387,169.728638 617.039185,160.965317 
	C617.095642,160.299866 617.661743,159.671616 618.013245,159.038437 
	C618.666809,157.861115 619.902527,156.698318 619.913757,155.520081 
	C620.047607,141.526978 620.011230,127.532112 619.978760,113.537796 
	C619.976196,112.416466 619.731384,110.332100 619.500122,110.317978 
	C615.363037,110.065575 617.284119,106.955864 617.069702,105.089630 
	C616.786438,102.623169 617.318481,100.047546 616.920471,97.613625 
	C616.407715,94.477821 615.320862,91.435867 614.458435,88.269356 
	C613.394531,88.043724 612.195007,87.789314 610.828735,87.499557 
	C612.949707,80.095856 602.099487,78.312729 604.903015,71.146790 
	C602.535217,70.990433 600.783325,70.874748 599.141541,70.766327 
	C598.991821,68.537399 598.874084,66.785095 598.763794,65.142380 
	C596.543030,64.992668 594.788696,64.874397 593.141602,64.763351 
	C592.993652,62.554321 592.875916,60.796425 592.747314,58.876537 
	C590.686523,58.876537 589.053833,58.876537 587.290466,58.876537 
	C587.057251,57.491783 586.851868,56.272213 586.733032,55.566631 
	C582.697205,54.453079 579.153748,53.475399 575.182678,52.379719 
	C575.079712,51.584492 574.921448,50.362766 574.836853,49.709732 
	C570.958435,48.541817 567.618103,47.535942 564.270752,46.521606 
	C564.012085,45.337875 563.753418,44.154148 563.512024,43.049343 
	C557.569519,42.097137 551.979431,41.201397 546.208984,40.276764 
	C546.040649,39.420162 545.805664,38.224796 545.600464,37.180664 
	C521.950989,37.180664 498.664734,37.180664 475.288422,37.180664 
	C475.046600,38.538879 474.832825,39.739719 474.692596,40.527294 
	C467.001465,41.567986 459.762268,42.547523 452.206970,43.569828 
	C452.073181,44.456249 451.889618,45.672325 451.707031,46.882084 
	C445.847687,47.854183 440.263153,48.780685 434.312469,49.767937 
	C434.119965,50.469944 433.766327,51.759758 433.477356,52.813683 
	C427.276489,53.616161 420.215393,50.889198 417.236115,58.826591 
	C411.201416,59.821365 403.732605,56.543552 400.000671,65.240845 
	C396.574219,65.240845 392.816956,65.240845 389.160156,65.240845 
	C388.995789,67.390884 388.862122,69.139587 388.735931,70.790192 
	C382.620850,71.676765 375.554260,68.878242 371.964142,77.382797 
	C346.837830,77.382797 321.205902,77.382797 295.354095,77.382797 
	C294.773712,68.245506 287.800232,71.933846 283.294281,70.737778 
	C283.042328,69.439850 282.806732,68.226181 282.674103,67.542923 
	C278.622620,66.435326 275.073425,65.465050 271.173859,64.398979 
	C271.072906,56.796799 264.872467,59.589134 260.454407,58.841492 
	C260.121094,57.562572 259.782684,56.264141 259.594269,55.541233 
	C255.463455,54.420414 251.919724,53.458893 248.264450,52.467106 
	C248.042221,51.402126 247.791351,50.199894 247.653152,49.537560 
	C243.577118,48.429852 240.031219,47.466213 236.216797,46.429604 
	C236.054962,45.485058 235.845825,44.264427 235.725479,43.562031 
	C231.685242,42.449360 228.142242,41.473625 224.146393,40.373177 
	C224.065201,39.585400 223.940521,38.375641 223.784164,36.858418 
	C219.983490,36.858418 216.541000,36.858418 213.126083,36.858418 
	C212.811066,30.759964 212.811066,30.759964 204.133759,31.012039 
	C201.751007,30.512911 198.176880,32.566872 197.386734,28.640820 
	C196.772751,25.590075 195.152252,25.753376 192.078674,26.012028 
	C187.793793,26.012028 183.508911,26.012028 178.872314,26.012028 
	C178.872314,23.761538 178.872314,22.019764 178.872314,19.900229 
	C171.084717,19.900229 163.660690,19.900229 155.878754,19.900229 
	C155.878754,17.770344 155.878754,16.027159 155.878754,14.241604 
	C145.757111,14.241604 136.004944,14.241604 125.887886,14.241604 
	C125.887886,16.223963 125.887886,17.966183 125.887886,20.000000 
	C120.888237,20.000000 116.250275,20.000000 111.612312,20.000000 
	C106.824738,20.000000 102.037155,20.000000 96.896423,20.000000 
	C96.896423,22.217148 96.896423,23.960491 96.896423,26.084446 
	C92.782135,26.084446 89.020035,26.084446 85.236122,26.084446 
	C85.236122,28.557356 85.236122,30.629099 85.236122,33.269035 
	C89.274986,33.269035 93.100578,33.269035 96.926170,33.269035 
	C97.006302,33.913254 97.086433,34.557468 97.166565,35.201687 
	C94.545235,35.801125 91.949944,36.684132 89.295944,36.927883 
	C86.013908,37.229309 82.683136,37.000000 79.499504,37.000000 
	C78.115494,42.670048 73.701920,42.761337 69.112396,43.241829 
	C69.442368,48.001209 66.531281,49.461311 63.605961,49.152084 
	C55.413406,57.323921 47.989891,64.728668 40.397514,72.301849 
	C39.554573,75.038208 38.573448,78.223137 37.451660,81.864693 
	C31.952312,81.399017 31.735975,85.530533 31.897184,89.137306 
	C23.937529,92.895721 26.727285,99.979454 25.778126,105.720161 
	C24.469656,105.951523 23.265099,106.164520 22.598581,106.282372 
	C21.530682,114.019257 20.531193,121.260513 19.531702,128.501770 
	C17.926388,129.583679 16.137407,131.074921 16.124756,132.581070 
	C15.943004,154.217285 16.000507,175.855499 16.000507,197.764236 
	C17.432312,197.930115 18.631315,198.069016 19.418100,198.160156 
	C20.237028,219.927490 21.039015,241.244507 21.852770,262.874329 
	C22.785297,262.958679 24.331680,263.098572 25.373262,263.192780 
	C26.106688,274.949646 26.809963,286.223175 27.528877,297.747406 
	C29.396061,297.937683 30.600307,298.060394 31.290428,298.130737 
	C32.259396,307.522949 33.180038,316.446716 34.119648,325.554352 
	C35.423203,325.882874 36.729141,326.211975 37.237457,326.340088 
	C38.283413,332.218689 39.214851,337.453644 40.145466,342.684021 
	C41.572666,342.956146 42.769299,343.184326 44.000000,343.419006 
	C44.000000,347.251556 44.218624,350.762451 43.945232,354.234619 
	C43.595287,358.679077 45.441990,361.043243 49.179817,361.234192 
	C52.528599,368.467346 45.061939,378.305328 56.192295,383.061096 
	C56.192295,388.466919 56.192295,394.088257 56.192295,400.065338 
	C58.184551,400.065338 59.926929,400.065338 62.047112,400.065338 
	C62.047112,406.184296 62.047112,411.948120 62.047112,417.662201 
	C63.953114,417.953217 65.483002,418.186798 67.184608,418.446564 
	C67.184608,424.098846 67.184608,429.390015 67.184608,435.038818 
	C69.161865,435.038818 70.905235,435.038818 72.783241,435.038818 
	C73.718559,441.209625 70.774475,448.547668 79.249374,451.948303 
	C79.249374,456.099457 79.249374,460.520142 79.249374,465.106293 
	C81.281082,465.106293 82.912605,465.106293 84.910950,465.106293 
	C84.910950,470.041534 84.910950,474.817169 84.910950,479.833557 
	C89.701263,479.768402 91.321953,482.141632 91.050034,486.438080 
	C90.810753,490.218994 91.000000,494.027008 91.000000,497.656433 
	C92.656578,498.014832 93.840469,498.270935 94.458473,498.404633 
	C95.579597,502.536743 96.541237,506.081024 97.532471,509.734375 
	C98.598938,509.957642 99.800888,510.209290 100.462799,510.347839 
	C101.571129,514.428040 102.533279,517.970093 103.571533,521.792358 
	C104.493607,521.942078 105.709755,522.139587 106.872643,522.328491 
	C107.471046,527.022583 104.993240,533.044006 111.954300,533.211365 
	C113.072838,537.227356 113.004082,542.060913 115.333763,543.974304 
	C117.870483,546.057800 118.137657,547.813660 117.951515,550.205505 
	C117.610435,554.588196 119.254227,557.153198 123.284508,557.214050 
	C124.289154,562.556702 125.213631,567.472961 126.168411,572.550415 
	C127.416084,572.873169 128.726028,573.212036 130.208557,573.595520 
	C130.208557,575.507874 130.208557,577.122620 130.208557,579.087646 
	C132.212799,579.087646 133.958054,579.087646 136.075531,579.087646 
	C136.075531,582.881165 136.075531,586.316650 136.075531,590.087219 
	C138.213638,590.087219 139.969330,590.087219 141.661530,590.087219 
	C142.380524,594.712341 142.558578,599.268494 148.300110,600.804932 
	C148.300110,603.136902 148.300110,605.546570 148.300110,608.133118 
	C150.333755,608.133118 151.959442,608.133118 154.138336,608.133118 
	C154.138336,611.528625 154.138336,614.741760 154.138336,617.851746 
	C156.461929,618.007019 158.214310,618.124146 159.857300,618.234009 
	C160.006851,620.452820 160.125229,622.208984 160.236450,623.859131 
	C162.447906,624.006287 164.206070,624.123291 166.125168,624.251038 
	C166.125168,626.314026 166.125168,627.947571 166.125168,629.687134 
	C169.777710,630.267700 173.262955,630.821655 176.696869,631.367432 
	C176.978928,632.658875 177.238083,633.845398 177.448105,634.807007 
	C184.154648,634.807007 190.457382,634.807007 195.088638,634.807007 
	C199.645615,630.914917 203.169815,627.904907 206.651474,624.931213 
	C207.575851,621.516602 208.534134,617.976746 209.608749,614.007202 
	C211.112289,614.007202 212.867783,614.007202 214.623260,614.007202 
	C218.841415,608.148682 216.114151,599.150635 223.592514,595.026428 
	C224.500107,591.767639 225.484818,588.232056 226.562729,584.361755 
	C227.433807,584.131042 228.741562,583.784729 230.222809,583.392395 
	C230.222809,579.806519 230.222809,576.521912 230.222809,572.884521 
	C232.231094,572.884521 233.973755,572.884521 236.093979,572.884521 
	C236.093979,568.763672 236.093979,564.998596 236.093979,560.889404 
	C238.221466,560.889404 239.971558,560.889404 242.087219,560.889404 
	C242.087219,555.435791 242.087219,550.338562 242.087219,544.893799 
	C244.219589,544.893799 245.962967,544.893799 248.083771,544.893799 
	C248.083771,540.776001 248.083771,537.010864 248.083771,532.900879 
	C250.214981,532.900879 251.958466,532.900879 254.079178,532.900879 
	C254.079178,529.114868 254.079178,525.691650 254.079178,521.909485 
	C256.209137,521.909485 257.952332,521.909485 260.069824,521.909485 
	C260.069824,517.789062 260.069824,514.020508 260.069824,509.915527 
	C262.202942,509.915527 263.959198,509.915527 264.771484,509.915527 
	C266.434143,506.526306 267.889008,503.947235 268.984131,501.223572 
	C270.166016,498.284149 271.011444,495.209442 272.038300,492.088379 
	C273.430695,491.995453 275.193573,491.877838 277.113342,491.749725 
	C277.113342,489.705811 277.113342,488.066864 277.113342,486.465271 
	C282.564240,485.482788 282.289429,480.827057 283.504150,477.168610 
	C287.931152,476.485535 288.714996,475.440033 289.378632,469.333252 
	C293.878632,468.499878 300.888763,459.130280 301.165527,453.472260 
	C302.436432,453.129425 303.740631,452.777557 305.221008,452.378204 
	C305.221008,450.466919 305.221008,448.859833 305.221008,446.886047 
	C307.242798,446.886047 308.994049,446.886047 311.110229,446.886047 
	C311.110229,444.761383 311.110229,443.010284 311.110229,440.895020 
	C313.234222,440.895020 314.985748,440.895020 317.097809,440.895020 
	C317.097809,438.769653 317.097809,437.015656 317.097809,435.108307 
	C318.880768,435.023865 320.303162,434.956512 321.669128,434.891815 
	C321.958832,433.023071 322.194519,431.502777 322.457397,429.807190 
	C324.466095,429.807190 326.087036,429.807190 328.057495,429.807190 
	C328.057495,427.823303 328.057495,426.066956 328.057495,423.947174 
	C330.179474,423.947174 331.931396,423.947174 334.048157,423.947174 
	C334.048157,421.825287 334.048157,420.073273 334.048157,417.956573 
	C336.169952,417.956573 337.922089,417.956573 340.038147,417.956573 
	C340.038147,415.841980 340.038147,414.077942 340.038147,411.972961 
	C342.158936,411.972961 343.928864,411.972961 345.400909,411.972961 
	C347.010254,406.334167 351.527832,406.404541 355.883667,405.652100 
	C355.539001,400.197693 359.249939,399.705078 363.564301,399.995789 
	C364.256592,394.425751 368.258575,393.733734 372.656799,393.952698 
	C372.957794,392.426270 373.196198,391.217133 373.479736,389.779175 
	C378.434784,390.891907 380.947662,388.808258 381.233582,385.013855 
	C385.315247,383.922577 388.889465,383.014038 392.435150,382.005310 
	C395.762665,381.058594 399.005371,379.492981 402.384796,379.132843 
	C406.401367,378.704865 409.244812,377.684692 409.233154,373.110748 
	C414.120239,372.580505 420.286224,374.981750 420.435516,366.811279 
	C425.799530,366.811279 430.753693,366.811279 436.064697,366.811279 
	C436.064697,364.815918 436.064697,363.073547 436.064697,361.757416 
	C447.861664,360.792816 459.258484,359.860931 470.687622,358.926422 
	C470.956451,357.449402 471.174652,356.250519 471.457520,354.696320 
	C475.466370,354.696320 479.205475,354.696320 482.635803,354.696320 
	C482.635803,349.864807 482.635803,345.456421 482.635803,341.357971 
	C470.865540,341.357971 459.460785,341.357971 447.865295,341.357971 
	C447.865295,343.341125 447.865295,344.964661 447.865295,346.946716 
	C439.898743,346.946716 432.124298,346.946716 424.181488,346.946716 
	C424.207611,351.781769 421.764313,353.304596 417.495605,353.050415 
	C413.529480,352.814240 409.538239,353.000000 405.186615,353.000000 
	C405.055725,354.391876 404.942902,355.591888 404.863129,356.440399 
	C398.178711,357.494141 391.945374,358.476746 385.323822,359.520569 
	C385.109711,360.407227 384.794250,361.713470 384.561462,362.677582 
	C379.886658,363.729492 375.660217,364.680511 371.210938,365.681702 
	C371.044098,366.562286 370.816162,367.765167 370.608582,368.860840 
	C364.729279,369.446106 358.140747,367.318756 355.162262,375.000000 
	C352.894958,375.000000 350.353271,374.683807 347.937225,375.098907 
	C345.964508,375.437805 342.781708,376.347839 342.517975,377.534271 
	C341.836121,380.601715 339.966522,380.136230 338.152893,379.957611 
	C333.820312,379.530853 330.802338,380.376099 332.118164,386.070831 
	C327.815247,386.070831 324.042938,386.070831 319.926392,386.070831 
	C319.926392,388.194702 319.926392,389.946503 319.926392,391.664490 
	C318.041809,391.952545 316.514832,392.185913 314.818512,392.445160 
	C314.818512,394.432037 314.818512,396.050476 314.818512,398.035553 
	C312.838745,398.035553 311.086761,398.035553 308.969208,398.035553 
	C308.969208,400.156311 308.969208,401.908203 308.969208,404.026306 
	C306.849396,404.026306 305.098358,404.026306 302.982971,404.026306 
	C302.982971,406.132538 302.982971,407.886749 302.982971,410.015320 
	C299.532104,410.015320 296.434723,410.015320 292.982727,410.015320 
	C292.982727,412.139130 292.982727,413.903442 292.982727,416.374786 
	C285.659668,412.770599 286.320404,422.447693 281.152252,422.560883 
	C281.019745,424.336121 280.888611,426.093079 280.759766,427.819611 
	C278.662048,427.981750 276.896820,428.118164 275.184875,428.250488 
	C275.021606,429.995148 274.886139,431.442810 274.760223,432.788147 
	C272.797913,433.029388 271.092865,433.239044 270.036621,433.368896 
	C269.596771,435.974548 269.299805,437.733765 268.519073,439.246674 
	C268.338409,439.257294 268.157745,439.267914 267.533600,439.028839 
	C267.364075,439.034851 267.194519,439.040894 266.346741,438.974060 
z"/>
<path fill="#ffff" opacity="1.000000" stroke="none" 
	d="
M205.000351,31.166672 
	C212.811066,30.759964 212.811066,30.759964 213.126083,36.858418 
	C216.541000,36.858418 219.983490,36.858418 223.784164,36.858418 
	C223.940521,38.375641 224.065201,39.585400 224.146393,40.373177 
	C228.142242,41.473625 231.685242,42.449360 235.725479,43.562031 
	C235.845825,44.264427 236.054962,45.485058 236.216797,46.429604 
	C240.031219,47.466213 243.577118,48.429852 247.653152,49.537560 
	C247.791351,50.199894 248.042221,51.402126 248.264450,52.467106 
	C251.919724,53.458893 255.463455,54.420414 259.594269,55.541233 
	C259.782684,56.264141 260.121094,57.562572 260.454407,58.841492 
	C264.872467,59.589134 271.072906,56.796799 271.173859,64.398979 
	C275.073425,65.465050 278.622620,66.435326 282.674103,67.542923 
	C282.806732,68.226181 283.042328,69.439850 283.294281,70.737778 
	C287.800232,71.933846 294.773712,68.245506 295.354095,77.382797 
	C321.205902,77.382797 346.837830,77.382797 371.964142,77.382797 
	C375.554260,68.878242 382.620850,71.676765 388.735931,70.790192 
	C388.862122,69.139587 388.995789,67.390884 389.160156,65.240845 
	C392.816956,65.240845 396.574219,65.240845 400.000671,65.240845 
	C403.732605,56.543552 411.201416,59.821365 417.236115,58.826591 
	C420.215393,50.889198 427.276489,53.616161 433.477356,52.813683 
	C433.766327,51.759758 434.119965,50.469944 434.312469,49.767937 
	C440.263153,48.780685 445.847687,47.854183 451.707031,46.882084 
	C451.889618,45.672325 452.073181,44.456249 452.206970,43.569828 
	C459.762268,42.547523 467.001465,41.567986 474.692596,40.527294 
	C474.832825,39.739719 475.046600,38.538879 475.288422,37.180664 
	C498.664734,37.180664 521.950989,37.180664 545.600464,37.180664 
	C545.805664,38.224796 546.040649,39.420162 546.208984,40.276764 
	C551.979431,41.201397 557.569519,42.097137 563.512024,43.049343 
	C563.753418,44.154148 564.012085,45.337875 564.274292,46.525841 
	C567.618103,47.535942 570.958435,48.541817 574.836853,49.709732 
	C574.921448,50.362766 575.079712,51.584492 575.182678,52.379719 
	C579.153748,53.475399 582.697205,54.453079 586.733032,55.566631 
	C586.851868,56.272213 587.057251,57.491783 587.290466,58.876537 
	C589.053833,58.876537 590.686523,58.876537 592.747314,58.876537 
	C592.875916,60.796425 592.993652,62.554321 593.141602,64.763351 
	C594.788696,64.874397 596.543030,64.992668 598.763794,65.142380 
	C598.874084,66.785095 598.991821,68.537399 599.141541,70.766327 
	C600.783325,70.874748 602.535217,70.990433 604.903015,71.146790 
	C602.099487,78.312729 612.949707,80.095856 610.828735,87.499557 
	C612.195007,87.789314 613.394531,88.043724 614.458435,88.269356 
	C615.320862,91.435867 616.407715,94.477821 616.920471,97.613625 
	C617.318481,100.047546 616.786438,102.623169 617.069702,105.089630 
	C617.284119,106.955864 615.363037,110.065575 619.500122,110.317978 
	C619.731384,110.332100 619.976196,112.416466 619.978760,113.537796 
	C620.011230,127.532112 620.047607,141.526978 619.913757,155.520081 
	C619.902527,156.698318 618.666809,157.861115 618.013245,159.038437 
	C617.661743,159.671616 617.095642,160.299866 617.039185,160.965317 
	C616.296387,169.728638 615.627258,178.498215 614.913818,187.596527 
	C613.766052,187.814285 612.564514,188.042252 611.739014,188.198883 
	C610.795654,194.000732 609.887085,199.588531 608.922485,205.521255 
	C607.823120,205.754944 606.631714,206.008209 605.000000,206.355057 
	C605.000000,209.851578 604.850952,213.490921 605.038818,217.112793 
	C605.259338,221.366089 604.255432,224.418900 599.216248,224.110657 
	C598.427063,229.871475 600.780579,236.550064 593.679504,239.585754 
	C592.797119,244.996597 591.884827,250.590683 590.916748,256.526733 
	C589.821106,256.759460 588.628967,257.012665 587.060303,257.345825 
	C587.060303,261.001282 587.060303,264.769592 587.060303,268.901245 
	C584.959412,268.901245 583.216431,268.901245 581.086792,268.901245 
	C581.086792,272.677032 581.086792,276.108276 581.086792,279.890778 
	C578.970764,279.890778 577.220154,279.890778 575.093018,279.890778 
	C575.093018,283.999359 575.093018,287.764069 575.093018,291.883240 
	C572.973328,291.883240 571.230469,291.883240 569.099243,291.883240 
	C569.099243,295.991486 569.099243,299.756683 569.099243,303.878998 
	C567.321777,303.959564 565.907959,304.023682 564.113892,304.105011 
	C564.113892,307.967804 564.113892,311.731079 564.113892,315.853699 
	C562.008057,315.946716 560.255859,316.024139 558.135925,316.117798 
	C558.135925,319.306519 558.135925,322.412262 558.135925,325.787964 
	C549.830811,325.870911 552.540894,332.006348 551.820251,336.749207 
	C550.181335,336.869598 548.434143,336.997955 546.252441,337.158234 
	C546.130310,338.802460 546.000305,340.552002 545.844849,342.643860 
	C544.737793,342.838379 543.518250,343.052704 542.561401,343.220856 
	C541.533630,347.010284 540.572083,350.555695 539.463867,354.641724 
	C538.811646,354.784119 537.614624,355.045410 536.221924,355.349426 
	C535.789001,359.617493 535.825256,364.329651 530.025513,365.611511 
	C530.279663,369.740936 529.816772,373.474060 524.183044,373.101776 
	C523.983643,377.461700 523.679199,381.510559 518.077637,382.364746 
	C518.556763,386.433014 517.673767,389.969574 512.474304,391.598755 
	C510.307831,392.000092 508.658173,392.093903 507.022491,391.982361 
	C502.528229,391.675903 501.048920,393.832764 500.888672,398.178009 
	C500.719940,402.753632 502.285278,404.671295 506.833344,404.000366 
	C505.214417,404.989990 503.595459,405.979584 501.204254,407.441254 
	C501.082397,410.035248 501.021210,414.294769 495.001953,414.166412 
	C495.001953,417.379303 495.001953,420.488403 495.001953,423.963745 
	C492.910034,423.963745 491.162231,423.963745 489.044617,423.963745 
	C489.044617,426.079376 489.044617,427.830444 489.044617,429.813629 
	C487.060242,429.813629 485.442871,429.813629 483.448700,429.813629 
	C483.188477,431.510132 482.954590,433.035095 482.664093,434.929016 
	C480.952759,434.929016 479.199493,434.929016 477.197571,434.929016 
	C477.197571,436.906647 477.197571,438.520172 477.197571,440.455170 
	C475.839508,440.755127 474.653595,441.017059 473.520905,441.267242 
	C472.515442,444.986176 471.517639,448.676849 470.404938,452.792480 
	C469.404114,452.891052 467.978058,453.031525 466.240875,453.202637 
	C466.112701,454.914520 465.980835,456.675354 465.824829,458.758820 
	C464.086212,458.888458 462.328461,459.019501 460.234833,459.175598 
	C460.108063,460.912720 459.979858,462.669281 459.930603,463.344208 
	C454.644684,468.633728 449.954773,473.326843 445.264862,478.019928 
	C443.300171,480.833801 443.561859,485.479553 438.110779,486.467163 
	C438.110779,488.067932 438.110779,489.706451 438.110779,491.743866 
	C436.194427,491.876282 434.436707,491.997742 432.242493,492.149353 
	C432.126282,493.809204 432.003265,495.566437 431.849762,497.759003 
	C430.194794,497.873718 428.437927,497.995514 426.239136,498.147919 
	C426.125946,499.800629 426.005646,501.557434 425.854645,503.762268 
	C424.207489,503.873962 422.453217,503.992920 420.237152,504.143188 
	C420.125916,505.786011 420.007324,507.537323 419.865509,509.631805 
	C418.424927,509.831970 416.878662,510.046844 414.980469,510.310608 
	C414.980469,512.144043 414.980469,513.896240 414.980469,516.014893 
	C412.861298,516.014893 411.109772,516.014893 408.992249,516.014893 
	C408.992249,518.132324 408.992249,519.881775 408.992249,521.804199 
	C406.203796,521.804199 403.789948,521.804199 401.196350,521.804199 
	C401.196350,519.194824 401.196350,516.781860 401.196350,513.998047 
	C403.130707,513.998047 404.875885,513.998047 407.001129,513.998047 
	C407.001129,509.877167 407.001129,506.110779 407.001129,501.994385 
	C409.131195,501.994385 410.880646,501.994385 412.841034,501.994385 
	C412.841034,500.008392 412.841034,498.386139 412.841034,496.477356 
	C414.204926,496.202271 415.414429,495.958313 416.456909,495.748047 
	C418.653656,491.598053 414.396454,483.879974 423.712280,483.816986 
	C424.262695,481.597870 422.998199,477.648743 427.381714,478.858276 
	C428.469147,474.889160 429.440704,471.342987 430.548279,467.300476 
	C431.236267,467.174866 432.455017,466.952332 434.021973,466.666229 
	C434.021973,464.862549 434.021973,463.106842 434.021973,460.986420 
	C436.138611,460.986420 437.899323,460.986420 439.691803,460.986420 
	C440.870789,456.126526 437.283997,449.195282 446.039917,448.635010 
	C446.039917,445.436829 446.039917,442.473480 446.039917,439.146332 
	C447.991730,439.057159 449.742462,438.977203 451.876587,438.879730 
	C451.876587,435.367188 451.876587,431.939240 451.876587,428.155609 
	C453.988617,428.057892 455.737457,427.976990 457.609009,427.890381 
	C459.158478,423.500244 455.049805,416.272980 463.661896,415.720764 
	C463.832733,408.049469 472.460663,402.802307 468.302246,394.054718 
	C471.078400,394.054718 472.821991,394.054718 474.176544,394.054718 
	C477.159668,389.991852 470.473358,381.613892 480.831909,381.806091 
	C480.831909,378.429871 480.831909,375.132660 480.831909,371.438843 
	C489.583649,370.987854 486.345306,364.258392 487.126312,359.601868 
	C492.816010,357.584290 493.227997,358.551117 493.082184,347.406311 
	C494.224518,347.187134 495.427551,346.956299 496.853821,346.682617 
	C497.785034,341.448242 498.716583,336.212036 499.715454,330.597534 
	C505.445984,328.941864 504.974304,323.576843 505.036774,318.232727 
	C506.381500,318.071747 507.600952,317.925781 508.690857,317.795319 
	C509.915985,313.134460 506.354889,306.425232 513.993286,305.747009 
	C515.026978,301.131073 514.903748,295.963196 517.284668,292.533966 
	C520.099304,288.480011 519.308716,284.475128 520.236877,280.467255 
	C520.650269,278.681824 523.418091,277.441589 525.942383,275.231567 
	C525.942383,271.600952 525.942383,266.629669 525.942383,261.288605 
	C527.866821,261.139435 529.610657,261.004242 532.000000,260.819000 
	C532.000000,257.001434 532.167908,253.056900 531.954163,249.133148 
	C531.726807,244.958328 533.632874,243.006989 537.419434,242.772018 
	C540.418091,237.265289 533.231934,228.232239 543.986572,225.363693 
	C543.986572,218.529144 543.986572,211.562759 543.986572,204.236801 
	C545.922180,204.104477 547.670288,203.984955 549.812866,203.838470 
	C549.812866,192.451065 549.812866,181.026779 549.812866,169.256500 
	C551.918213,169.108826 553.665833,168.986237 555.708008,168.842987 
	C555.708008,158.457581 555.708008,148.037170 555.708008,137.235016 
	C554.088501,137.116196 552.340942,136.987976 550.198853,136.830811 
	C550.198853,129.468948 550.198853,122.042290 550.198853,114.280533 
	C548.102539,114.121712 546.352539,113.989120 544.207275,113.826584 
	C544.207275,110.137451 544.207275,106.379318 544.207275,102.283051 
	C542.107361,102.119987 540.363586,101.984573 538.263123,101.821465 
	C538.127991,100.131500 537.987793,98.378548 537.818298,96.259079 
	C536.138733,96.126862 534.381958,95.988556 532.259155,95.821442 
	C532.127136,94.143982 531.988831,92.387589 531.821594,90.263794 
	C530.148071,90.128685 528.394653,89.987122 526.296814,89.817749 
	C526.120178,88.684914 525.929321,87.460800 525.799805,86.630325 
	C522.108582,85.558762 518.751831,84.584305 515.170837,83.544762 
	C515.067017,82.560349 514.951294,81.464020 514.830811,80.322090 
	C514.247437,80.202217 513.773926,80.022728 513.299500,80.020203 
	C508.800476,79.996307 504.284698,80.246162 499.806030,79.942070 
	C493.319427,79.501625 486.430450,76.912666 480.478485,78.368759 
	C468.442627,81.313248 456.445038,78.773056 444.151367,80.334442 
	C444.054352,81.406570 443.946014,82.603210 443.885712,83.269371 
	C435.131561,84.196899 426.867706,85.072479 418.326263,85.977470 
	C418.120422,87.314445 417.934326,88.523308 417.718292,89.926483 
	C410.923126,89.926483 404.292816,89.926483 397.290436,89.926483 
	C397.139801,91.866539 397.004211,93.612915 396.854187,95.545166 
	C389.612518,97.805527 380.086090,92.398140 373.530304,102.004288 
	C364.594818,102.004288 354.488861,102.004288 344.019379,102.004288 
	C344.019379,104.110748 344.019379,105.863419 344.019379,107.796494 
	C341.903961,107.796494 340.158661,107.796494 338.044861,107.796494 
	C338.044861,105.915367 338.044861,104.165787 338.044861,102.032852 
	C326.260376,102.032852 314.834656,102.032852 303.048340,102.032852 
	C303.048340,99.912399 303.048340,98.170036 303.048340,96.040909 
	C296.934448,96.040909 291.171234,96.040909 285.053802,96.040909 
	C285.053802,93.917297 285.053802,92.174828 285.053802,89.999962 
	C280.574066,89.999962 276.446350,90.077805 272.325165,89.948311 
	C271.216431,89.913475 270.127533,89.248276 269.469330,88.336761 
	C269.995880,85.185440 271.116791,81.722404 269.869354,80.199989 
	C268.695648,78.767555 264.929779,78.876785 262.493805,79.328720 
	C261.420776,79.527817 260.816681,82.254311 259.999664,83.833328 
	C259.049805,82.767654 258.099915,81.701981 256.641388,80.065643 
	C254.211990,80.172981 250.919312,80.139404 249.786301,75.854362 
	C249.641449,75.306526 247.564911,75.115791 246.364792,75.035469 
	C244.404343,74.904251 242.428696,75.000008 240.093903,75.000008 
	C240.093903,72.956284 240.093903,71.210968 240.093903,69.079163 
	C235.979889,69.079163 232.214798,69.079163 228.086151,69.079163 
	C228.086151,66.956642 228.086151,65.210434 228.086151,63.740017 
	C224.298279,62.626652 220.947357,61.641716 217.225571,60.547771 
	C217.093811,59.639935 216.916992,58.421574 216.757477,57.322418 
	C212.172668,56.021870 205.382263,59.749538 204.745041,50.971703 
	C201.572128,50.971703 198.462097,50.971703 195.002228,50.971703 
	C195.002228,48.873432 195.002228,47.129181 195.002228,45.000977 
	C190.218338,45.000977 185.786118,45.000977 181.003906,45.000977 
	C181.003906,42.874397 181.003906,41.120953 181.003906,39.004295 
	C173.885986,39.004295 167.124115,39.004295 160.007416,39.004295 
	C160.007416,36.877522 160.007416,35.135094 160.007416,33.159508 
	C152.022476,33.159508 144.398148,33.159508 136.439301,33.159508 
	C136.179962,31.452467 135.948135,29.926512 135.686600,28.205051 
	C124.896614,28.205051 114.130859,28.205051 103.365105,28.205051 
	C103.191231,28.493538 103.017357,28.782026 102.843483,29.070513 
	C106.433861,31.047167 109.827728,33.676537 113.665367,34.831898 
	C118.252838,36.213009 123.201820,36.609280 128.027390,36.924698 
	C133.152313,37.259682 138.316086,37.000000 143.780991,37.000000 
	C143.934906,38.407013 144.066757,39.612411 144.173264,40.586086 
	C150.147568,41.633717 155.713745,42.609779 161.820084,43.680565 
	C161.908844,44.327713 162.075134,45.540218 162.281250,47.043175 
	C167.641663,47.929070 172.896927,48.797588 178.727264,49.761147 
	C178.816498,50.231331 179.044189,51.431057 179.238892,52.456902 
	C182.953278,53.463108 186.496078,54.422844 190.608475,55.536873 
	C190.791977,56.281658 191.113403,57.586224 191.412170,58.798885 
	C196.086197,59.795540 202.726288,56.353916 203.283325,64.708176 
	C207.772751,65.961838 214.511566,62.321583 215.314178,70.993774 
	C218.048203,70.993774 220.821518,70.993774 223.960220,70.993774 
	C223.960220,73.088799 223.960220,74.838654 223.960220,76.603645 
	C227.347046,77.106705 230.383423,77.510658 233.398071,78.038635 
	C234.150085,78.170341 235.415085,78.644203 235.456161,79.058731 
	C235.874008,83.275291 239.133865,81.641907 241.780518,82.175911 
	C241.885300,83.816071 241.998383,85.586212 242.146652,87.907394 
	C245.950470,87.907394 249.845123,87.907394 253.909378,87.907394 
	C253.909378,90.076836 253.909378,91.705002 253.909378,93.731087 
	C255.821884,93.870674 257.576447,93.998734 259.755615,94.157784 
	C259.872894,95.811035 259.997406,97.566475 260.152893,99.758476 
	C261.806946,99.873421 263.562866,99.995445 265.766022,100.148552 
	C265.876129,101.801582 265.993195,103.559029 266.136536,105.710693 
	C268.801849,105.710693 271.555023,105.710693 274.654816,105.710693 
	C274.654816,108.486191 274.654816,110.900314 274.654816,113.660400 
	C271.397064,113.660400 267.860596,113.660400 264.120758,113.660400 
	C264.120758,111.938293 264.120758,110.310547 264.120758,108.120453 
	C258.065277,108.120453 252.180542,108.120453 246.121002,108.120453 
	C246.121002,105.939705 246.121002,104.312088 246.121002,102.124542 
	C240.067001,102.124542 234.183456,102.124542 228.123016,102.124542 
	C228.123016,99.943359 228.123016,98.316307 228.123016,96.277557 
	C220.537598,96.277557 213.122925,96.277557 205.719894,96.277557 
	C204.748337,91.676270 201.415405,90.146683 197.827744,90.093063 
	C182.998795,89.871422 168.162674,89.876877 153.334091,90.110336 
	C150.567368,90.153893 147.823212,91.628761 144.391312,92.643318 
	C144.280045,93.150635 144.021103,94.331261 143.678101,95.895103 
	C140.064560,95.895103 136.289062,95.895103 132.163605,95.895103 
	C132.062668,97.985489 131.978226,99.734520 131.875244,101.867111 
	C128.711105,101.867111 125.611984,101.867111 122.161011,101.867111 
	C122.062241,103.978424 121.980431,105.727043 121.883751,107.793564 
	C119.707581,107.909660 117.618172,108.021126 115.198212,108.150230 
	C115.086327,109.960075 114.977814,111.715454 114.845589,113.854362 
	C111.722839,113.854362 108.631935,113.854362 105.189735,113.854362 
	C105.076279,115.960297 104.981895,117.712204 104.869766,119.793480 
	C103.055267,119.909805 101.297455,120.022499 99.215141,120.155991 
	C99.095993,121.937798 98.978363,123.696762 98.839844,125.768234 
	C97.064880,125.894310 95.304504,126.019341 93.158691,126.171753 
	C93.158691,129.583572 93.158691,133.011703 93.158691,136.752991 
	C91.052551,136.898987 89.302956,137.020279 87.163986,137.168549 
	C87.163986,140.913696 87.163986,144.674362 87.163986,148.741638 
	C85.054497,148.893723 83.304932,149.019867 81.171158,149.173706 
	C81.171158,154.251190 81.171158,159.350586 81.171158,164.749832 
	C76.319702,164.891068 74.771866,167.385956 74.930527,171.787766 
	C75.188240,178.937759 75.000000,186.103821 75.000000,193.603516 
	C73.750633,193.829483 72.552132,194.046234 71.551750,194.227158 
	C70.667297,197.498383 69.131126,200.576782 69.109909,203.665588 
	C68.921097,231.162308 68.928238,258.661316 69.104340,286.158203 
	C69.123207,289.102295 70.586937,292.037140 71.544144,295.582794 
	C72.146736,295.714844 73.323105,295.972656 74.893227,296.316772 
	C74.893227,307.258301 74.893227,318.364044 74.893227,329.820465 
	C76.980774,329.928070 78.728951,330.018219 80.864815,330.128326 
	C80.864815,339.613495 80.864815,349.040039 80.864815,358.814575 
	C82.977058,358.925415 84.725227,359.017120 86.861496,359.129211 
	C86.861496,366.608215 86.861496,374.035919 86.861496,381.811096 
	C88.973640,381.923309 90.721794,382.016205 92.847687,382.129150 
	C92.847687,389.278687 92.847687,396.381348 92.847687,403.832123 
	C97.940025,403.734406 99.234657,406.489349 99.056374,410.822754 
	C98.825363,416.437805 99.000000,422.069519 99.000000,427.877991 
	C101.058670,427.877991 102.686028,427.877991 104.873703,427.877991 
	C104.873703,433.596710 104.873703,439.147888 104.873703,444.875916 
	C107.054901,444.875916 108.681664,444.875916 110.720467,444.875916 
	C110.720467,450.794922 110.720467,456.541382 110.720467,461.955109 
	C119.146523,465.675201 114.387939,473.088440 116.635056,478.855530 
	C117.244438,478.921753 118.320465,479.038696 120.100304,479.232147 
	C120.948250,484.596069 121.823242,490.131104 122.732246,495.881256 
	C124.062012,495.881256 125.693275,495.881256 127.882660,495.881256 
	C127.882660,499.934540 127.882660,503.818817 127.882660,507.879608 
	C130.060669,507.879608 131.688797,507.879608 133.723679,507.879608 
	C133.723679,511.133118 133.723679,514.215698 133.723679,517.578918 
	C135.273087,517.844727 136.481781,518.052124 137.020966,518.144653 
	C138.101303,521.615051 138.447159,525.065430 140.154129,527.598572 
	C142.144684,530.552612 144.386963,533.336792 146.211945,536.447083 
	C146.650314,537.194275 148.561615,537.077209 149.749359,537.347107 
	C150.294617,541.645386 150.337448,546.096252 155.868759,547.488403 
	C155.868759,549.021606 155.868759,550.657776 155.868759,552.746338 
	C157.780380,552.874207 159.525436,552.990967 161.766434,553.140869 
	C161.874161,554.777039 161.989273,556.525513 162.127182,558.620056 
	C163.553345,558.825806 165.098145,559.048767 166.993011,559.322144 
	C166.993011,561.120117 166.993011,562.868958 166.993011,564.805481 
	C172.453125,564.805481 177.545242,564.805481 182.851776,564.805481 
	C182.851776,563.008911 182.851776,561.390686 182.851776,559.772461 
	C183.222229,559.941833 183.592697,560.111206 183.963150,560.280640 
	C185.072357,558.650024 185.950287,556.772705 187.354401,555.456787 
	C188.824875,554.078674 190.800705,553.239685 192.874298,551.970032 
	C193.180832,548.232910 193.329987,543.847412 198.957977,542.516296 
	C199.050507,537.814148 198.541885,532.617981 204.987915,530.299316 
	C204.987915,527.285706 204.987915,523.841125 204.987915,520.046753 
	C207.087173,520.046753 208.830978,520.046753 210.958786,520.046753 
	C210.958786,515.930725 210.958786,512.164551 210.958786,508.042480 
	C213.085236,508.042480 214.832657,508.042480 216.632751,508.042480 
	C217.213211,504.002747 217.742218,500.321075 218.324158,496.271149 
	C219.310974,496.119232 220.529114,495.931702 221.904694,495.719971 
	C221.904694,493.906128 221.904694,492.271179 221.904694,490.253967 
	C223.829865,490.122803 225.591187,490.002838 227.749191,489.855835 
	C227.749191,487.182617 227.749191,484.424469 227.749191,481.292358 
	C229.845825,481.133881 231.594681,481.001709 233.799988,480.835022 
	C233.901566,478.520081 234.007980,476.095001 234.132126,473.265778 
	C235.831970,473.134552 237.577911,472.999756 239.751907,472.831940 
	C239.871613,471.180298 239.998825,469.424835 240.156662,467.246735 
	C241.812378,467.127472 243.568283,467.000977 245.742462,466.844360 
	C245.869476,465.192322 246.004089,463.441284 246.139481,461.680237 
	C251.085617,460.188263 251.863159,456.169678 253.143280,452.515900 
	C254.924057,450.132080 256.702911,447.746765 258.497498,445.373413 
	C258.539581,445.317780 258.781555,445.357880 258.890015,445.421692 
	C259.027435,445.502686 259.123566,445.653748 259.652527,446.175720 
	C261.429779,447.751556 262.792053,448.926270 265.117035,450.931152 
	C265.932373,447.496887 266.466187,445.248444 267.000000,442.666687 
	C267.000000,441.888885 267.000000,441.444458 267.281189,440.977478 
	C268.042511,440.467621 268.522675,439.980316 269.002808,439.493011 
	C269.299805,437.733765 269.596771,435.974548 270.036621,433.368896 
	C271.092865,433.239044 272.797913,433.029388 274.760223,432.788147 
	C274.886139,431.442810 275.021606,429.995148 275.184875,428.250488 
	C276.896820,428.118164 278.662048,427.981750 280.759766,427.819611 
	C280.888611,426.093079 281.019745,424.336121 281.152252,422.560883 
	C286.320404,422.447693 285.659668,412.770599 292.982727,416.374786 
	C292.982727,413.903442 292.982727,412.139130 292.982727,410.015320 
	C296.434723,410.015320 299.532104,410.015320 302.982971,410.015320 
	C302.982971,407.886749 302.982971,406.132538 302.982971,404.026306 
	C305.098358,404.026306 306.849396,404.026306 308.969208,404.026306 
	C308.969208,401.908203 308.969208,400.156311 308.969208,398.035553 
	C311.086761,398.035553 312.838745,398.035553 314.818512,398.035553 
	C314.818512,396.050476 314.818512,394.432037 314.818512,392.445160 
	C316.514832,392.185913 318.041809,391.952545 319.926392,391.664490 
	C319.926392,389.946503 319.926392,388.194702 319.926392,386.070831 
	C324.042938,386.070831 327.815247,386.070831 332.118164,386.070831 
	C330.802338,380.376099 333.820312,379.530853 338.152893,379.957611 
	C339.966522,380.136230 341.836121,380.601715 342.517975,377.534271 
	C342.781708,376.347839 345.964508,375.437805 347.937225,375.098907 
	C350.353271,374.683807 352.894958,375.000000 355.162262,375.000000 
	C358.140747,367.318756 364.729279,369.446106 370.608582,368.860840 
	C370.816162,367.765167 371.044098,366.562286 371.210938,365.681702 
	C375.660217,364.680511 379.886658,363.729492 384.561462,362.677582 
	C384.794250,361.713470 385.109711,360.407227 385.323822,359.520569 
	C391.945374,358.476746 398.178711,357.494141 404.863129,356.440399 
	C404.942902,355.591888 405.055725,354.391876 405.186615,353.000000 
	C409.538239,353.000000 413.529480,352.814240 417.495605,353.050415 
	C421.764313,353.304596 424.207611,351.781769 424.181488,346.946716 
	C432.124298,346.946716 439.898743,346.946716 447.865295,346.946716 
	C447.865295,344.964661 447.865295,343.341125 447.865295,341.357971 
	C459.460785,341.357971 470.865540,341.357971 482.635803,341.357971 
	C482.635803,345.456421 482.635803,349.864807 482.635803,354.696320 
	C479.205475,354.696320 475.466370,354.696320 471.457520,354.696320 
	C471.174652,356.250519 470.956451,357.449402 470.687622,358.926422 
	C459.258484,359.860931 447.861664,360.792816 436.064697,361.757416 
	C436.064697,363.073547 436.064697,364.815918 436.064697,366.811279 
	C430.753693,366.811279 425.799530,366.811279 420.435516,366.811279 
	C420.286224,374.981750 414.120239,372.580505 409.233154,373.110748 
	C409.244812,377.684692 406.401367,378.704865 402.384796,379.132843 
	C399.005371,379.492981 395.762665,381.058594 392.435150,382.005310 
	C388.889465,383.014038 385.315247,383.922577 381.233582,385.013855 
	C380.947662,388.808258 378.434784,390.891907 373.479736,389.779175 
	C373.196198,391.217133 372.957794,392.426270 372.656799,393.952698 
	C368.258575,393.733734 364.256592,394.425751 363.564301,399.995789 
	C359.249939,399.705078 355.539001,400.197693 355.883667,405.652100 
	C351.527832,406.404541 347.010254,406.334167 345.400909,411.972961 
	C343.928864,411.972961 342.158936,411.972961 340.038147,411.972961 
	C340.038147,414.077942 340.038147,415.841980 340.038147,417.956573 
	C337.922089,417.956573 336.169952,417.956573 334.048157,417.956573 
	C334.048157,420.073273 334.048157,421.825287 334.048157,423.947174 
	C331.931396,423.947174 330.179474,423.947174 328.057495,423.947174 
	C328.057495,426.066956 328.057495,427.823303 328.057495,429.807190 
	C326.087036,429.807190 324.466095,429.807190 322.457397,429.807190 
	C322.194519,431.502777 321.958832,433.023071 321.669128,434.891815 
	C320.303162,434.956512 318.880768,435.023865 317.097809,435.108307 
	C317.097809,437.015656 317.097809,438.769653 317.097809,440.895020 
	C314.985748,440.895020 313.234222,440.895020 311.110229,440.895020 
	C311.110229,443.010284 311.110229,444.761383 311.110229,446.886047 
	C308.994049,446.886047 307.242798,446.886047 305.221008,446.886047 
	C305.221008,448.859833 305.221008,450.466919 305.221008,452.378204 
	C303.740631,452.777557 302.436432,453.129425 301.165527,453.472260 
	C300.888763,459.130280 293.878632,468.499878 289.378632,469.333252 
	C288.714996,475.440033 287.931152,476.485535 283.504089,477.168579 
	C282.289429,480.827057 282.564240,485.482788 277.113342,486.465271 
	C277.113342,488.066864 277.113342,489.705811 277.113342,491.749725 
	C275.193573,491.877838 273.430695,491.995453 272.038300,492.088379 
	C271.011444,495.209442 270.166016,498.284149 268.984131,501.223572 
	C267.889008,503.947235 266.434143,506.526306 264.771484,509.915527 
	C263.959198,509.915527 262.202942,509.915527 260.069824,509.915527 
	C260.069824,514.020508 260.069824,517.789062 260.069824,521.909485 
	C257.952332,521.909485 256.209137,521.909485 254.079178,521.909485 
	C254.079178,525.691650 254.079178,529.114868 254.079178,532.900879 
	C251.958466,532.900879 250.214981,532.900879 248.083771,532.900879 
	C248.083771,537.010864 248.083771,540.776001 248.083771,544.893799 
	C245.962967,544.893799 244.219589,544.893799 242.087219,544.893799 
	C242.087219,550.338562 242.087219,555.435791 242.087219,560.889404 
	C239.971558,560.889404 238.221466,560.889404 236.093979,560.889404 
	C236.093979,564.998596 236.093979,568.763672 236.093979,572.884521 
	C233.973755,572.884521 232.231094,572.884521 230.222809,572.884521 
	C230.222809,576.521912 230.222809,579.806519 230.222809,583.392395 
	C228.741562,583.784729 227.433807,584.131042 226.562729,584.361755 
	C225.484818,588.232056 224.500107,591.767639 223.592514,595.026428 
	C216.114151,599.150635 218.841415,608.148682 214.623260,614.007202 
	C212.867783,614.007202 211.112289,614.007202 209.608749,614.007202 
	C208.534134,617.976746 207.575851,621.516602 206.651474,624.931213 
	C203.169815,627.904907 199.645615,630.914917 195.088638,634.807007 
	C190.457382,634.807007 184.154648,634.807007 177.448105,634.807007 
	C177.238083,633.845398 176.978928,632.658875 176.696869,631.367432 
	C173.262955,630.821655 169.777710,630.267700 166.125168,629.687134 
	C166.125168,627.947571 166.125168,626.314026 166.125168,624.251038 
	C164.206070,624.123291 162.447906,624.006287 160.236450,623.859131 
	C160.125229,622.208984 160.006851,620.452820 159.857300,618.234009 
	C158.214310,618.124146 156.461929,618.007019 154.138336,617.851746 
	C154.138336,614.741760 154.138336,611.528625 154.138336,608.133118 
	C151.959442,608.133118 150.333755,608.133118 148.300110,608.133118 
	C148.300110,605.546570 148.300110,603.136902 148.300110,600.804932 
	C142.558578,599.268494 142.380524,594.712341 141.661530,590.087219 
	C139.969330,590.087219 138.213638,590.087219 136.075531,590.087219 
	C136.075531,586.316650 136.075531,582.881165 136.075531,579.087646 
	C133.958054,579.087646 132.212799,579.087646 130.208557,579.087646 
	C130.208557,577.122620 130.208557,575.507874 130.208557,573.595520 
	C128.726028,573.212036 127.416084,572.873169 126.168411,572.550415 
	C125.213631,567.472961 124.289154,562.556702 123.284508,557.214050 
	C119.254227,557.153198 117.610435,554.588196 117.951515,550.205505 
	C118.137657,547.813660 117.870483,546.057800 115.333763,543.974304 
	C113.004082,542.060913 113.072838,537.227356 111.954300,533.211365 
	C104.993240,533.044006 107.471046,527.022583 106.872643,522.328491 
	C105.709755,522.139587 104.493607,521.942078 103.571533,521.792358 
	C102.533279,517.970093 101.571129,514.428040 100.462799,510.347839 
	C99.800888,510.209290 98.598938,509.957642 97.532471,509.734375 
	C96.541237,506.081024 95.579597,502.536743 94.458473,498.404633 
	C93.840469,498.270935 92.656578,498.014832 91.000000,497.656433 
	C91.000000,494.027008 90.810753,490.218994 91.050034,486.438080 
	C91.321953,482.141632 89.701263,479.768402 84.910950,479.833557 
	C84.910950,474.817169 84.910950,470.041534 84.910950,465.106293 
	C82.912605,465.106293 81.281082,465.106293 79.249374,465.106293 
	C79.249374,460.520142 79.249374,456.099457 79.249374,451.948303 
	C70.774475,448.547668 73.718559,441.209625 72.783241,435.038818 
	C70.905235,435.038818 69.161865,435.038818 67.184608,435.038818 
	C67.184608,429.390015 67.184608,424.098846 67.184608,418.446564 
	C65.483002,418.186798 63.953114,417.953217 62.047112,417.662201 
	C62.047112,411.948120 62.047112,406.184296 62.047112,400.065338 
	C59.926929,400.065338 58.184551,400.065338 56.192295,400.065338 
	C56.192295,394.088257 56.192295,388.466919 56.192295,383.061096 
	C45.061939,378.305328 52.528599,368.467346 49.179817,361.234192 
	C45.441990,361.043243 43.595287,358.679077 43.945232,354.234619 
	C44.218624,350.762451 44.000000,347.251556 44.000000,343.419006 
	C42.769299,343.184326 41.572666,342.956146 40.145466,342.684021 
	C39.214851,337.453644 38.283413,332.218689 37.237457,326.340088 
	C36.729141,326.211975 35.423203,325.882874 34.119648,325.554352 
	C33.180038,316.446716 32.259396,307.522949 31.290428,298.130737 
	C30.600307,298.060394 29.396061,297.937683 27.528877,297.747406 
	C26.809963,286.223175 26.106688,274.949646 25.373262,263.192780 
	C24.331680,263.098572 22.785297,262.958679 21.852770,262.874329 
	C21.039015,241.244507 20.237028,219.927490 19.418100,198.160156 
	C18.631315,198.069016 17.432312,197.930115 16.000507,197.764236 
	C16.000507,175.855499 15.943004,154.217285 16.124756,132.581070 
	C16.137407,131.074921 17.926388,129.583679 19.531702,128.501770 
	C20.531193,121.260513 21.530682,114.019257 22.598581,106.282372 
	C23.265099,106.164520 24.469656,105.951523 25.778126,105.720161 
	C26.727285,99.979454 23.937529,92.895721 31.897184,89.137306 
	C31.735975,85.530533 31.952312,81.399017 37.451660,81.864693 
	C38.573448,78.223137 39.554573,75.038208 40.397514,72.301849 
	C47.989891,64.728668 55.413406,57.323921 63.605961,49.152084 
	C66.531281,49.461311 69.442368,48.001209 69.112396,43.241829 
	C73.701920,42.761337 78.115494,42.670048 79.499504,37.000000 
	C82.683136,37.000000 86.013908,37.229309 89.295944,36.927883 
	C91.949944,36.684132 94.545235,35.801125 97.166565,35.201687 
	C97.086433,34.557468 97.006302,33.913254 96.926170,33.269035 
	C93.100578,33.269035 89.274986,33.269035 85.236122,33.269035 
	C85.236122,30.629099 85.236122,28.557356 85.236122,26.084446 
	C89.020035,26.084446 92.782135,26.084446 96.896423,26.084446 
	C96.896423,23.960491 96.896423,22.217148 96.896423,20.000000 
	C102.037155,20.000000 106.824738,20.000000 111.612312,20.000000 
	C116.250275,20.000000 120.888237,20.000000 125.887886,20.000000 
	C125.887886,17.966183 125.887886,16.223963 125.887886,14.241604 
	C136.004944,14.241604 145.757111,14.241604 155.878754,14.241604 
	C155.878754,16.027159 155.878754,17.770344 155.878754,19.900229 
	C163.660690,19.900229 171.084717,19.900229 178.872314,19.900229 
	C178.872314,22.019764 178.872314,23.761538 178.872314,26.012028 
	C183.508911,26.012028 187.793793,26.012028 192.539337,26.533043 
	C193.000015,28.369297 193.130615,29.700087 192.976196,30.996943 
	C192.458206,35.347656 193.919739,37.234608 198.684372,37.138016 
	C203.088791,37.048721 205.818375,36.278797 205.000351,31.166672 
z"/>
<path fill="#FFFDFD" opacity="1.000000" stroke="none" 
	d="
M506.910400,403.576630 
	C502.285278,404.671295 500.719940,402.753632 500.888672,398.178009 
	C501.048920,393.832764 502.528229,391.675903 507.022491,391.982361 
	C508.658173,392.093903 510.307831,392.000092 512.392212,391.999817 
	C513.904541,396.670044 510.212494,397.188629 506.987427,398.470886 
	C506.987427,399.962524 506.987427,401.557709 506.910400,403.576630 
z"/>
<path fill="#FFFDFD" opacity="1.000000" stroke="none" 
	d="
M204.567047,31.089355 
	C205.818375,36.278797 203.088791,37.048721 198.684372,37.138016 
	C193.919739,37.234608 192.458206,35.347656 192.976196,30.996943 
	C193.130615,29.700087 193.000015,28.369297 192.999817,26.610363 
	C195.152252,25.753376 196.772751,25.590075 197.386734,28.640820 
	C198.176880,32.566872 201.751007,30.512911 204.567047,31.089355 
z"/>
<path fill="#FFFDFD" opacity="1.000000" stroke="none" 
	d="
M260.411865,83.910477 
	C260.816681,82.254311 261.420776,79.527817 262.493805,79.328720 
	C264.929779,78.876785 268.695648,78.767555 269.869354,80.199989 
	C271.116791,81.722404 269.995880,85.185440 269.537903,87.900566 
	C266.385803,86.662575 263.604919,85.325096 260.411865,83.910477 
z"/>
<path fill="#FFFDFD" opacity="1.000000" stroke="none" 
	d="
M267.000000,443.000000 
	C266.466187,445.248444 265.932373,447.496887 265.117035,450.931152 
	C262.792053,448.926270 261.429779,447.751556 260.013733,446.229797 
	C261.400726,444.328888 262.841522,442.774994 264.690857,441.498657 
	C265.732910,442.184174 266.366455,442.592102 267.000000,443.000000 
z"/>
<path fill="#FFFDFD" opacity="1.000000" stroke="none" 
	d="
M267.000000,442.666687 
	C266.366455,442.592102 265.732910,442.184174 265.049866,441.471466 
	C265.000366,441.166687 265.406403,441.000580 265.788574,440.894531 
	C266.170746,440.788513 266.382294,440.497192 266.536743,440.622894 
	C266.691162,440.748596 267.000000,441.000000 267.000000,441.000000 
	C267.000000,441.444458 267.000000,441.888885 267.000000,442.666687 
z"/>
<path fill="#FFFDFD" opacity="1.000000" stroke="none" 
	d="
M268.760956,439.369843 
	C268.522675,439.980316 268.042511,440.467621 267.281189,440.977478 
	C267.000000,441.000000 266.691162,440.748596 266.549103,440.479248 
	C266.407043,440.209930 266.611969,440.006592 266.876221,439.959656 
	C267.419373,439.701324 267.698242,439.489929 267.977112,439.278564 
	C268.157745,439.267914 268.338409,439.257294 268.760956,439.369843 
z"/>
<path fill="#A3A2A2" opacity="1.000000" stroke="none" 
	d="
M266.611969,440.006592 
	C266.611969,440.006592 266.407043,440.209930 266.394653,440.353577 
	C266.382294,440.497192 266.170746,440.788513 265.992523,440.813812 
	C265.991760,440.217438 266.169250,439.595734 266.491333,439.211121 
	C266.627930,439.634308 266.619934,439.820465 266.611969,440.006592 
z"/>
<path fill="#FFFDFD" opacity="1.000000" stroke="none" 
	d="
M266.876221,439.959656 
	C266.619934,439.820465 266.627930,439.634308 266.830444,439.247559 
	C267.194519,439.040894 267.364075,439.034851 267.755371,439.153687 
	C267.698242,439.489929 267.419373,439.701324 266.876221,439.959656 
z"/>
</svg>